<?xml version="1.0" encoding="UTF-8"?>
<svg width="512" height="512" viewBox="0 0 512 512" fill="none" xmlns="http://www.w3.org/2000/svg">
    <!-- Círculo de fundo -->
    <circle cx="256" cy="256" r="240" fill="#2563eb"/>
    
    <!-- Símbolo do cifrão -->
    <path d="M276 352h-24c-44.2 0-80-35.8-80-80s35.8-80 80-80h64c8.8 0 16-7.2 16-16s-7.2-16-16-16h-144v-32h144c26.5 0 48 21.5 48 48s-21.5 48-48 48h-64c-26.5 0-48 21.5-48 48s21.5 48 48 48h24c8.8 0 16 7.2 16 16s-7.2 16-16 16z" fill="white"/>
    
    <!-- Gráfico crescente -->
    <path d="M160 288l48-48 48 32 96-96" stroke="white" stroke-width="24" stroke-linecap="round" stroke-linejoin="round"/>
    <circle cx="352" cy="176" r="12" fill="white"/>
</svg>
